<?xml version="1.0" encoding="UTF-8"?>
<svg width="576" height="512" version="1.1" viewBox="0 0 152.4 135.47" xmlns="http://www.w3.org/2000/svg" xmlns:cc="http://creativecommons.org/ns#" xmlns:dc="http://purl.org/dc/elements/1.1/" xmlns:rdf="http://www.w3.org/1999/02/22-rdf-syntax-ns#">
 <metadata>
  <rdf:RDF>
   <cc:Work rdf:about="">
    <dc:format>image/svg+xml</dc:format>
    <dc:type rdf:resource="http://purl.org/dc/dcmitype/StillImage"/>
    <dc:title/>
   </cc:Work>
  </rdf:RDF>
 </metadata>
 <g transform="translate(-26.855 -33.726)">
  <path d="m83.747 52.522-23.539 23.534h-27.002c-3.5083 0-6.3498 2.8415-6.3498 6.3498v38.099c0 3.5056 2.8415 6.3498 6.3498 6.3498h27.002l23.539 23.534c3.9766 3.9766 10.84 1.1827 10.84-4.4899v-88.887c0-5.6779-6.8684-8.4612-10.84-4.4899zm65.247 48.934 12.076-12.076c1.6669-1.6669 1.6669-4.3708 0-6.0377l-6.0376-6.0377c-1.6669-1.6669-4.3708-1.6669-6.0376 0l-12.076 12.076-12.076-12.076c-1.6669-1.6669-4.3708-1.6669-6.0376 0l-6.0376 6.0377c-1.6669 1.6669-1.6669 4.3708 0 6.0377l12.076 12.076-12.073 12.073c-1.6669 1.6669-1.6669 4.3708 0 6.0376l6.0376 6.0376c1.6669 1.6669 4.3708 1.6669 6.0376 0l12.073-12.073 12.076 12.076c1.6669 1.6669 4.3708 1.6669 6.0376 0l6.0376-6.0376c1.6669-1.6668 1.6669-4.3708 0-6.0376z" fill="#fff" stroke-width=".26457"/>
 </g>
</svg>
