<?xml version="1.0" encoding="UTF-8"?>
<svg width="576" height="512" version="1.1" viewBox="0 0 152.4 135.47" xmlns="http://www.w3.org/2000/svg" xmlns:cc="http://creativecommons.org/ns#" xmlns:dc="http://purl.org/dc/elements/1.1/" xmlns:rdf="http://www.w3.org/1999/02/22-rdf-syntax-ns#">
 <metadata>
  <rdf:RDF>
   <cc:Work rdf:about="">
    <dc:format>image/svg+xml</dc:format>
    <dc:type rdf:resource="http://purl.org/dc/dcmitype/StillImage"/>
    <dc:title/>
   </cc:Work>
  </rdf:RDF>
 </metadata>
 <g transform="translate(-26.855 -33.726)">
  <path d="m83.748 52.526-23.54 23.535h-27.003c-3.5084 0-6.35 2.8416-6.35 6.35v38.1c0 3.5057 2.8416 6.35 6.35 6.35h27.003l23.54 23.535c3.9767 3.9767 10.84 1.1827 10.84-4.49v-88.889c0-5.678-6.8686-8.4614-10.84-4.49zm61.733-13.515c-2.9554-1.9394-6.9268-1.1218-8.8662 1.8389-1.942 2.9554-1.1165 6.9268 1.8388 8.8662 17.534 11.507 27.998 30.85 27.998 51.747 0 20.897-10.464 40.24-27.998 51.747-2.9554 1.9368-3.7809 5.9108-1.8388 8.8635 1.8627 2.8337 5.8023 3.8523 8.8662 1.8388 21.146-13.88 33.774-37.23 33.774-62.452 0-25.223-12.629-48.57-33.774-62.45zm8.374 62.45c0-16.809-8.4825-32.263-22.693-41.339-2.9607-1.8891-6.8871-1.0107-8.763 1.9738-1.8759 2.9845-1.0001 6.9347 1.9606 8.8265 10.517 6.7178 16.796 18.132 16.796 30.538 0 12.406-6.2786 23.82-16.796 30.538-2.9607 1.8891-3.8365 5.8393-1.9606 8.8265 1.7224 2.7411 5.588 4.0058 8.763 1.9738 14.211-9.0752 22.693-24.527 22.693-41.338zm-37.51-20.339c-3.0639-1.6748-6.9294-0.5715-8.6281 2.5003-1.6907 3.0718-0.5715 6.9321 2.5003 8.6281 3.4158 1.8759 5.5377 5.4081 5.5377 9.2101 0 3.8047-2.122 7.3342-5.5351 9.2102-3.0718 1.696-4.191 5.5562-2.5003 8.6281 1.7013 3.085 5.5695 4.1804 8.6281 2.5003 7.4692-4.1143 12.11-11.906 12.11-20.341 0-8.4349-4.6408-16.224-12.113-20.336z" fill="#fff" stroke-width=".265"/>
 </g>
</svg>
